<?xml version="1.0" encoding="UTF-8"?>
<svg id="Layer_2" data-name="Layer 2" xmlns="http://www.w3.org/2000/svg" viewBox="0 0 684.1 109.53">
  <defs>
    <style>
      .cls-1 {
        fill: #f8edd6;
      }
    </style>
  </defs>
  <g id="Layer_1-2" data-name="Layer 1">
    <g>
      <path class="cls-1" d="M177.14,50.94v-4.67c0-8.65,1.73-16.11,5.19-22.38,3.47-6.26,8.4-11.11,14.79-14.54,6.39-3.43,14.02-5.15,22.9-5.15,12.54,0,22.4,3.26,29.56,9.77,7.17,6.5,11.26,15.52,12.27,27.04h-24.19c-1.79-10.92-7.75-16.38-17.88-16.38-5.61,0-10.17,1.89-13.67,5.67-3.5,3.78-5.25,9.29-5.25,16.54v3.5c0,7.25,1.75,12.77,5.25,16.54,3.5,3.78,8.05,5.67,13.67,5.67,10.13,0,16.08-5.45,17.88-16.35h24.19c-1.02,11.53-5.1,20.54-12.27,27.04s-17.02,9.75-29.56,9.75c-8.88,0-16.51-1.71-22.9-5.13-6.39-3.43-11.32-8.28-14.79-14.54-3.46-6.28-5.19-13.74-5.19-22.4Z"/>
      <path class="cls-1" d="M297.01,27.58c10.36,0,18.11,2.54,23.25,7.6,5.14,5.06,7.71,12.49,7.71,22.29v33.77h-10.5l-6.67-16.13c-1.79,5.68-4.99,10.08-9.58,13.21-4.6,3.11-10.24,4.67-16.94,4.67s-11.41-1.54-14.83-4.6c-3.43-3.08-5.15-6.84-5.15-11.29,0-6.69,2.67-11.86,8-15.52,5.33-3.67,13.69-6.35,25.06-8.06l8.29-1.29c-.31-2.57-1.16-4.42-2.56-5.54-1.41-1.14-3.51-1.71-6.31-1.71s-4.75.55-6.08,1.65c-1.32,1.08-2.18,2.52-2.56,4.31h-22.44c.63-4.67,2.08-8.75,4.38-12.25,2.3-3.51,5.67-6.24,10.1-8.19,4.44-1.94,10.05-2.92,16.83-2.92ZM292.22,75.94c2.73,0,5.15-.58,7.25-1.75,2.09-1.17,3.75-2.68,4.96-4.54,1.21-1.88,1.81-3.9,1.81-6.08l-3.5.58c-10.36,1.71-15.54,4.4-15.54,8.06,0,1.02.41,1.89,1.23,2.63.82.74,2.08,1.1,3.79,1.1Z"/>
      <path class="cls-1" d="M375.42,22.9c-3.82,0-6.38.55-7.67,1.65-1.28,1.08-1.92,3.07-1.92,5.96v2.1h20.44v18.69h-19.96v39.96h-22.44v-39.96h-12.63v-18.69h12.63v-3.75c0-3.5.34-6.73,1.04-9.69.71-2.96,2.01-5.57,3.92-7.83,1.92-2.26,4.6-4.01,8.06-5.25,3.47-1.25,8.01-1.88,13.6-1.88,3.82,0,7.05.2,9.71.58,2.65.39,4.67.78,6.06,1.17v17.65c-1.08-.15-2.6-.3-4.54-.46-1.95-.17-4.05-.25-6.31-.25Z"/>
      <path class="cls-1" d="M453.93,56.31c0,3.2-.16,6.08-.46,8.65h-44.98c.54,3.82,1.76,6.55,3.67,8.19,1.92,1.64,4.31,2.46,7.19,2.46,3.04,0,5.3-.48,6.77-1.46,1.48-.98,2.61-2.29,3.4-3.92h23.38c-.56,4.04-2.1,7.8-4.63,11.27-2.53,3.46-6.07,6.24-10.63,8.35-4.56,2.09-10.18,3.15-16.88,3.15-7.1,0-13.18-1.31-18.25-3.92-5.06-2.61-8.93-6.29-11.63-11.04-2.68-4.75-4.02-10.23-4.02-16.46v-2.58c0-6.3,1.34-11.81,4.02-16.52,2.69-4.72,6.59-8.38,11.69-10.98,5.11-2.61,11.28-3.92,18.52-3.92,6.86,0,12.74,1.25,17.65,3.75,4.9,2.49,8.66,5.89,11.27,10.21,2.61,4.32,3.92,9.24,3.92,14.77ZM420.51,44.29c-3.2,0-5.79.7-7.77,2.1-1.99,1.39-3.33,3.8-4.02,7.23h22.67c-.47-3.34-1.63-5.73-3.46-7.17-1.82-1.44-4.29-2.17-7.42-2.17Z"/>
      <path class="cls-1" d="M456.27,61.58v-2.58c0-6.3,1.34-11.81,4.02-16.52,2.69-4.72,6.59-8.38,11.69-10.98,5.11-2.61,11.25-3.92,18.42-3.92,9.8,0,17.51,2.42,23.13,7.25,5.61,4.82,8.84,11.4,9.71,19.73h-23.02c-1.17-5.38-4.56-8.06-10.17-8.06-3.35,0-6.06,1.14-8.13,3.4-2.06,2.25-3.08,5.72-3.08,10.4s1.03,8.14,3.08,10.4c2.07,2.27,4.78,3.4,8.13,3.4,5.61,0,9.03-2.69,10.27-8.06h23.02c-.85,8.33-4.08,14.92-9.69,19.75-5.61,4.82-13.36,7.23-23.25,7.23-7.17,0-13.31-1.31-18.42-3.92-5.1-2.61-8.99-6.29-11.69-11.04-2.68-4.75-4.02-10.23-4.02-16.46Z"/>
      <path class="cls-1" d="M552.43,11.23c0-3.43-1.06-6.16-3.17-8.19-2.1-2.03-5.02-3.04-8.75-3.04s-6.68,1.02-8.77,3.04c-2.1,2.03-3.15,4.76-3.15,8.19s1.05,6.14,3.15,8.17c2.09,2.03,5.02,3.04,8.77,3.04s6.65-1.01,8.75-3.04c2.11-2.03,3.17-4.75,3.17-8.17ZM551.73,91.25h-22.44V29.33h22.44v61.92Z"/>
      <path class="cls-1" d="M612.25,29.33v18.69h-20.92v15.31c0,2.81.27,4.97.81,6.48.55,1.52,1.55,2.55,2.98,3.1,1.44.54,3.53.81,6.25.81,2.26,0,4.34-.11,6.25-.35,1.92-.23,3.5-.47,4.75-.71v18.58c-1.49.3-3.6.67-6.33,1.1-2.72.43-5.95.65-9.69.65-9.58,0-16.54-2.11-20.85-6.35-4.32-4.25-6.48-10.93-6.48-20.04v-18.58h-12.27v-18.69h13.08l8.65-18.35h12.85v18.35h20.92Z"/>
      <path class="cls-1" d="M649.99,93c-7.17,0-13.31-1.31-18.42-3.92-5.1-2.61-8.99-6.27-11.69-10.98-2.68-4.71-4.02-10.18-4.02-16.42v-2.79c0-6.23,1.34-11.71,4.02-16.42,2.69-4.72,6.59-8.38,11.69-10.98,5.11-2.61,11.25-3.92,18.42-3.92s13.3,1.31,18.4,3.92c5.09,2.6,8.98,6.26,11.67,10.98,2.69,4.71,4.04,10.18,4.04,16.42v2.79c0,6.24-1.35,11.71-4.04,16.42-2.68,4.71-6.57,8.37-11.67,10.98-5.1,2.61-11.23,3.92-18.4,3.92ZM649.99,74.19c3.58,0,6.4-1.15,8.46-3.44,2.07-2.3,3.1-5.86,3.1-10.69s-1.04-8.02-3.1-10.27c-2.06-2.26-4.88-3.4-8.46-3.4s-6.41,1.14-8.48,3.4c-2.06,2.25-3.08,5.68-3.08,10.27,0,4.82,1.03,8.39,3.08,10.69,2.07,2.29,4.9,3.44,8.48,3.44Z"/>
    </g>
    <g>
      <path class="cls-1" d="M23.2,92.28c-4.72,0-8.81-1-12.29-3-3.48-2.01-6.17-4.87-8.07-8.56-1.9-3.71-2.84-8.1-2.84-13.19s.76-9.53,2.28-14.08c1.54-4.54,3.72-8.63,6.56-12.26,2.85-3.63,6.29-6.5,10.31-8.61,4.03-2.12,8.55-3.19,13.57-3.19,3.18,0,6.09.46,8.73,1.37,2.64.92,4.93,2.25,6.89,4,1.97,1.76,3.5,3.88,4.58,6.38,1.1,2.48,1.66,5.32,1.7,8.49h-7.73c-.11-2.11-.55-3.97-1.3-5.58-.74-1.63-1.76-3-3.05-4.12-1.29-1.12-2.79-1.96-4.51-2.54-1.72-.57-3.58-.86-5.58-.86-3.9,0-7.38.88-10.45,2.63-3.06,1.76-5.67,4.11-7.84,7.07-2.16,2.95-3.8,6.26-4.93,9.94-1.13,3.67-1.7,7.39-1.7,11.19s.66,7.04,2,9.7c1.35,2.65,3.22,4.67,5.61,6.03,2.39,1.37,5.17,2.05,8.35,2.05,2.14,0,4.2-.29,6.19-.86,2-.57,3.87-1.41,5.61-2.51,1.73-1.12,3.28-2.48,4.63-4.1,1.36-1.61,2.44-3.47,3.23-5.58h7.77c-1.07,3.12-2.53,5.92-4.37,8.4-1.85,2.47-4,4.58-6.45,6.35-2.46,1.77-5.11,3.12-7.98,4.05-2.86.93-5.83,1.4-8.91,1.4Z"/>
      <path class="cls-1" d="M72.62,92.38c-3.8,0-7-.97-9.59-2.91-2.59-1.95-4.41-4.69-5.45-8.21-1.04-3.54-1.16-7.69-.37-12.45.79-4.76,2.29-8.89,4.51-12.38,2.22-3.49,4.94-6.19,8.17-8.1,3.24-1.92,6.76-2.89,10.56-2.89,2.71,0,4.87.44,6.47,1.33,1.59.87,2.82,1.91,3.68,3.12.85,1.2,1.5,2.32,1.93,3.35h.49l1.14-7.14h7.31l-7.49,45.33h-7.12l1.16-6.98h-.7c-.83,1.07-1.87,2.23-3.14,3.47-1.27,1.23-2.86,2.28-4.75,3.16-1.9.87-4.17,1.3-6.82,1.3ZM74.88,85.84c2.76,0,5.21-.72,7.35-2.16,2.15-1.45,3.96-3.47,5.4-6.03s2.43-5.52,2.98-8.89c.57-3.36.56-6.31-.02-8.82-.59-2.52-1.74-4.49-3.44-5.89-1.69-1.4-3.92-2.09-6.68-2.09s-5.33.74-7.52,2.21c-2.19,1.46-3.99,3.46-5.4,5.98-1.41,2.51-2.39,5.39-2.93,8.61-.53,3.29-.51,6.22.07,8.8.57,2.56,1.71,4.58,3.42,6.07,1.72,1.48,3.98,2.21,6.77,2.21Z"/>
      <path class="cls-1" d="M132.48,46.09l-.98,5.98h-26.48l.98-5.98h26.48ZM99.13,109.53c-.57,0-1.1-.02-1.58-.07-.48-.03-.94-.09-1.4-.16-.45-.06-.96-.16-1.54-.3l1.68-6.61c.47.1,1.07.2,1.82.28.74.09,1.34.14,1.77.14,2,0,3.53-.52,4.58-1.56,1.07-1.02,1.78-2.67,2.14-4.93l9.05-54.41c.48-2.99,1.4-5.52,2.77-7.59,1.38-2.06,3.15-3.63,5.31-4.7,2.17-1.07,4.66-1.61,7.47-1.61.99,0,1.94.06,2.84.19.9.13,1.82.27,2.75.44l-1.79,6.24c-.5-.08-1.21-.14-2.14-.19s-1.78-.07-2.54-.07c-2.14,0-3.8.61-4.98,1.82-1.18,1.21-1.97,3.09-2.37,5.63l-9.01,54.2c-.47,2.9-1.34,5.33-2.61,7.31-1.27,1.97-2.93,3.45-4.98,4.44-2.04,1.01-4.44,1.51-7.24,1.51Z"/>
      <path class="cls-1" d="M150.53,92.4c-3.69,0-6.88-.72-9.54-2.14-2.65-1.44-4.71-3.54-6.17-6.28-1.44-2.76-2.16-6.13-2.16-10.1s.63-7.77,1.88-11.26c1.27-3.49,3.04-6.54,5.31-9.15,2.28-2.62,4.92-4.67,7.94-6.14,3.01-1.49,6.24-2.23,9.68-2.23,2.96,0,5.54.51,7.75,1.51,2.2.99,3.9,2.42,5.1,4.28,1.21,1.86,1.82,4.08,1.82,6.66s-.67,4.78-2.02,6.61c-1.34,1.82-3.4,3.29-6.19,4.42-2.79,1.13-6.35,1.97-10.68,2.51-4.32.53-9.46.79-15.43.79l.98-5.65c5.01,0,9.19-.15,12.54-.44,3.35-.31,6.01-.8,7.98-1.49,1.98-.7,3.4-1.61,4.24-2.72.85-1.12,1.28-2.5,1.28-4.14,0-1.78-.73-3.2-2.19-4.26-1.44-1.05-3.4-1.58-5.86-1.58-3.07,0-5.69.72-7.84,2.14-2.14,1.43-3.9,3.28-5.26,5.54-1.37,2.25-2.37,4.67-3,7.26-.62,2.58-.93,5.04-.93,7.4,0,2.22.35,4.24,1.05,6.05.7,1.8,1.87,3.25,3.51,4.33,1.66,1.09,3.89,1.63,6.68,1.63,2.99,0,5.62-.65,7.89-1.95,2.28-1.3,3.99-3.06,5.14-5.28l6.84,1.51c-1.63,3.72-4.26,6.69-7.89,8.89-3.63,2.2-7.77,3.3-12.43,3.3ZM155.07,39.16l7.66-11.31h8.17l-9.87,11.31h-5.96Z"/>
    </g>
  </g>
</svg>